<svg xmlns="http://www.w3.org/2000/svg" width="575.975" height="512.596" viewBox="0 0 575.975 512.596">
  <path id="Exclusion_1" data-name="Exclusion 1" d="M360.566,512.6c-35.682,0-74.287-.15-114-.318l-9.4-.04h-.053c-33.748-.143-65.625-.277-89.634-.277-7.515,0-13.854.013-19.379.039a63.974,63.974,0,0,1-64.01-64V287.6H32.05A31.7,31.7,0,0,1,0,255.5a32.442,32.442,0,0,1,10.01-24L266.4,8.016C273.449.952,281.477,0,288.4,0a37.259,37.259,0,0,1,10.888,1.628A29.926,29.926,0,0,1,309.5,7.014L416,100.7V64a31.961,31.961,0,0,1,32-32h32a31.963,31.963,0,0,1,32,32V185l52.8,46.5a35.306,35.306,0,0,1,8.912,11.25A22.931,22.931,0,0,1,575.8,255.5a31.491,31.491,0,0,1-2.609,12.609,32.222,32.222,0,0,1-7.016,10.191,32.577,32.577,0,0,1-10.2,6.816A31.138,31.138,0,0,1,543.8,287.6h-32l.7,160.1a63.976,63.976,0,0,1-64,64.3C429.156,512.4,400.393,512.6,360.566,512.6ZM349.632,140.54a20.493,20.493,0,0,0-13.453,5.049L172.97,288.4a20.563,20.563,0,0,0-5.666,22.571c2.939,7.771,10.557,13.2,18.527,13.2H257.5L208.46,438.557a20.413,20.413,0,0,0,6.758,24.547,20.2,20.2,0,0,0,11.968,3.9,20.579,20.579,0,0,0,13.479-5.043L403.892,319.134a19.522,19.522,0,0,0,5.1-22.572c-2.382-7.771-10.011-13.2-18.554-13.2H319.345l49.032-114.38a20.4,20.4,0,0,0-18.745-28.443Z"/>
</svg>
