<svg xmlns="http://www.w3.org/2000/svg" xmlns:xlink="http://www.w3.org/1999/xlink" version="1.1" width="176.652" height="176.652" style="" xml:space="preserve"><rect id="backgroundrect" width="100%" height="100%" x="0" y="0" fill="none" stroke="none"/>
















<g class="currentLayer" style=""><title>Layer 1</title><g id="svg_1" class="" fill="#d50b0b" fill-opacity="1">
	<g id="svg_2" fill="#d50b0b" fill-opacity="1">
		<path d="M107.705,61.896h-7.331c-2.168,1.273-4.524,2.451-7.069,3.538c-2.542,1.084-5.1,2.064-7.664,2.917    c-2.561,0.861-5.023,1.577-7.38,2.128c-2.36,0.554-4.424,0.935-6.187,1.145l-1.416,10.084h19.379l-7.688,53.91H63.215    l-1.599,12.732h51.624l1.784-12.732H97.366L107.705,61.896z" id="svg_3" fill="#d50b0b" fill-opacity="1"/>
		<path d="M152.838,0h-2.923v10.987c0,4.951-4.007,8.973-8.976,8.973c-4.956,0-8.981-4.028-8.981-8.973V0h-17.116v10.987    c0,4.951-4.007,8.973-8.976,8.973c-4.956,0-8.981-4.028-8.981-8.973V0H79.768v10.987c0,4.951-4.01,8.973-8.972,8.973    c-4.963,0-8.985-4.028-8.985-8.973V0H44.694v10.987c0,4.951-4.009,8.973-8.972,8.973c-4.962,0-8.984-4.028-8.984-8.973V0h-2.92    C12.696,0,3.654,9.036,3.654,20.152v136.351c0,11.113,9.042,20.149,20.164,20.149h129.02c11.119,0,20.161-9.036,20.161-20.149    V20.152C172.999,9.036,163.957,0,152.838,0z M164.931,156.503c0,6.668-5.425,12.094-12.093,12.094H23.812    c-6.671,0-12.096-5.426-12.096-12.094V51.328c0-6.665,5.425-12.09,12.096-12.09h129.014c6.674,0,12.099,5.425,12.099,12.09    v105.175H164.931z" id="svg_4" fill="#d50b0b" fill-opacity="1"/>
	</g>
</g><g id="svg_5">
</g><g id="svg_6">
</g><g id="svg_7">
</g><g id="svg_8">
</g><g id="svg_9">
</g><g id="svg_10">
</g><g id="svg_11">
</g><g id="svg_12">
</g><g id="svg_13">
</g><g id="svg_14">
</g><g id="svg_15">
</g><g id="svg_16">
</g><g id="svg_17">
</g><g id="svg_18">
</g><g id="svg_19">
</g></g></svg>