<?xml version="1.0" encoding="iso-8859-1"?>
<!-- Generator: Adobe Illustrator 19.0.0, SVG Export Plug-In . SVG Version: 6.00 Build 0)  -->
<svg version="1.1" id="Layer_1" xmlns="http://www.w3.org/2000/svg" xmlns:xlink="http://www.w3.org/1999/xlink" x="0px" y="0px"
	 viewBox="0 0 512 512" style="enable-background:new 0 0 512 512;" xml:space="preserve">
<path id="SVGCleanerId_0" style="fill:#36B39A;" d="M217.043,100.174c-9.22,0-16.696-7.475-16.696-16.696V16.696
	c0-9.22,7.475-16.696,16.696-16.696s16.696,7.475,16.696,16.696v66.783C233.739,92.699,226.263,100.174,217.043,100.174z"/>
<g>
	<path style="fill:#36B39A;" d="M294.956,100.174c-9.22,0-16.696-7.475-16.696-16.696V16.696C278.26,7.475,285.735,0,294.956,0
		s16.696,7.475,16.696,16.696v66.783C311.652,92.699,304.176,100.174,294.956,100.174z"/>
	<path style="fill:#36B39A;" d="M68.454,300.522c-4.273,0-8.546-1.629-11.805-4.891L9.427,248.409c-6.52-6.52-6.52-17.091,0-23.611
		c6.519-6.52,17.091-6.52,23.611,0L80.26,272.02c6.52,6.52,6.52,17.091,0,23.611C77,298.892,72.727,300.522,68.454,300.522z"/>
</g>
<path style="fill:#3D9987;" d="M443.544,300.522c-4.273,0-8.546-1.629-11.805-4.891c-6.52-6.52-6.52-17.091,0-23.611l47.223-47.222
	c6.52-6.52,17.092-6.519,23.611,0c6.52,6.52,6.52,17.091,0,23.611l-47.223,47.222C452.09,298.891,447.816,300.522,443.544,300.522z"
	/>
<path style="fill:#36B39A;" d="M123.547,245.428c-4.273,0-8.546-1.63-11.805-4.891l-47.223-47.222c-6.52-6.519-6.52-17.091,0-23.611
	c6.519-6.52,17.091-6.52,23.611,0l47.223,47.222c6.52,6.519,6.52,17.091,0,23.611C132.093,243.799,127.82,245.428,123.547,245.428z"
	/>
<path style="fill:#3D9987;" d="M388.452,245.428c-4.273,0-8.546-1.63-11.805-4.891c-6.52-6.52-6.52-17.091,0-23.611l47.223-47.222
	c6.519-6.52,17.091-6.52,23.611,0c6.52,6.52,6.52,17.091,0,23.611l-47.223,47.222C396.998,243.799,392.723,245.428,388.452,245.428z
	"/>
<g>
	<path id="SVGCleanerId_0_1_" style="fill:#36B39A;" d="M217.043,100.174c-9.22,0-16.696-7.475-16.696-16.696V16.696
		c0-9.22,7.475-16.696,16.696-16.696s16.696,7.475,16.696,16.696v66.783C233.739,92.699,226.263,100.174,217.043,100.174z"/>
</g>
<path style="fill:#3D9987;" d="M294.956,100.174c-9.22,0-16.696-7.475-16.696-16.696V16.696C278.26,7.475,285.735,0,294.956,0
	s16.696,7.475,16.696,16.696v66.783C311.652,92.699,304.176,100.174,294.956,100.174z"/>
<path style="fill:#36B39A;" d="M349.297,323.376c-6.519-6.52-17.091-6.52-23.611,0l-52.991,52.992V194.783
	c0-9.22-7.475-16.696-16.696-16.696s-16.696,7.475-16.696,16.696v181.585l-52.992-52.991c-6.519-6.52-17.091-6.52-23.611,0
	c-6.52,6.52-6.52,17.091,0,23.611l76.603,76.602v71.715c0,9.22,7.475,16.696,16.696,16.696s16.696-7.475,16.696-16.696V423.59
	l76.602-76.603C355.818,340.467,355.818,329.896,349.297,323.376z"/>
<path style="fill:#3D9987;" d="M272.695,495.304V423.59l76.602-76.603c6.52-6.52,6.52-17.091,0-23.611
	c-6.519-6.52-17.091-6.52-23.611,0l-52.991,52.992V194.783c0-9.22-7.475-16.696-16.696-16.696V512
	C265.22,512,272.695,504.525,272.695,495.304z"/>
<path style="fill:#5FD382;" d="M123.547,372.87c-23.785,0-46.145-9.262-62.964-26.081l-27.547-27.546
	c-3.131-3.131-4.891-7.377-4.891-11.806c0-4.428,1.759-8.674,4.891-11.805l102.315-102.315c3.131-3.131,7.377-4.891,11.805-4.891
	c4.428,0,8.674,1.759,11.805,4.891l27.547,27.547c34.717,34.718,34.717,91.208,0,125.926l0,0
	C169.692,363.608,147.331,372.87,123.547,372.87z M174.705,334.984h0.011H174.705z"/>
<path style="fill:#61B97A;" d="M388.452,372.87c-23.785,0-46.146-9.262-62.963-26.081c-34.717-34.718-34.717-91.208,0-125.926
	l27.547-27.547c3.131-3.131,7.377-4.891,11.805-4.891s8.675,1.76,11.805,4.891l102.315,102.315
	c3.131,3.131,4.891,7.377,4.891,11.805c0,4.429-1.759,8.674-4.891,11.806l-27.547,27.547
	C434.597,363.608,412.236,372.87,388.452,372.87z"/>
<path style="fill:#5FD382;" d="M255.999,211.478c-49.099,0-89.043-39.945-89.043-89.043V83.478c0-9.22,7.475-16.696,16.696-16.696
	h144.696c9.22,0,16.696,7.475,16.696,16.696v38.957C345.043,171.533,305.098,211.478,255.999,211.478z"/>
<path style="fill:#61B97A;" d="M345.043,122.435V83.478c0-9.22-7.475-16.696-16.696-16.696h-72.348v144.696
	C305.098,211.478,345.043,171.533,345.043,122.435z"/>
<path style="fill:#576573;" d="M322.782,512H189.217c-9.22,0-16.696-7.475-16.696-16.696s7.475-16.696,16.696-16.696h133.565
	c9.22,0,16.696,7.475,16.696,16.696S332.002,512,322.782,512z"/>
<path style="fill:#485566;" d="M339.478,495.304c0-9.22-7.475-16.696-16.696-16.696h-66.783V512h66.783
	C332.002,512,339.478,504.525,339.478,495.304z"/>
<g>
</g>
<g>
</g>
<g>
</g>
<g>
</g>
<g>
</g>
<g>
</g>
<g>
</g>
<g>
</g>
<g>
</g>
<g>
</g>
<g>
</g>
<g>
</g>
<g>
</g>
<g>
</g>
<g>
</g>
</svg>
