<svg xmlns="http://www.w3.org/2000/svg" xmlns:xlink="http://www.w3.org/1999/xlink" version="1.1" width="841.4" height="841.4" style="enable-background:new 0 0 841.4 841.4;" xml:space="preserve"><rect id="backgroundrect" width="100%" height="100%" x="0" y="0" fill="none" stroke="none"/>
















<g class="currentLayer" style=""><title>Layer 1</title><g id="svg_1" class="" fill="#0284ff" fill-opacity="1" stroke-opacity="1" stroke="#0580fc">
	<g id="svg_2" fill="#0284ff" fill-opacity="1" stroke="#0580fc">
		<path d="M59.7,336.3V796.4c0,24.899,20.1,45,45,45h632c24.9,0,45-20.101,45-45V336.3c0-13.899-6.4-27-17.4-35.5    c-27.199-21.2-76.899-66.7-76.899-116.3H420.7H154c0,49.6-49.7,95.1-76.9,116.3C66.1,309.3,59.7,322.4,59.7,336.3z M299,508.1    L435.8,304.7c8.301-12.3,27.4-6.4,27.4,8.399v195h66.6c12,0,19.101,13.4,12.4,23.4L405.5,734.8c-8.3,12.3-27.399,6.4-27.399-8.399    v-195H311.5C299.5,531.4,292.3,518,299,508.1z" id="svg_3" fill="#0284ff" fill-opacity="1" stroke="#0580fc"/>
		<path d="M144.7,144h552c22.6,0,41-18.4,41-41V41c0-22.6-18.4-41-41-41h-552c-22.6,0-41,18.4-41,41v62    C103.7,125.7,122.1,144,144.7,144z" id="svg_4" fill="#0284ff" fill-opacity="1" stroke="#0580fc"/>
	</g>
</g><g id="svg_5">
</g><g id="svg_6">
</g><g id="svg_7">
</g><g id="svg_8">
</g><g id="svg_9">
</g><g id="svg_10">
</g><g id="svg_11">
</g><g id="svg_12">
</g><g id="svg_13">
</g><g id="svg_14">
</g><g id="svg_15">
</g><g id="svg_16">
</g><g id="svg_17">
</g><g id="svg_18">
</g><g id="svg_19">
</g></g></svg>