<?xml version="1.0" encoding="iso-8859-1"?>
<!-- Generator: Adobe Illustrator 16.0.0, SVG Export Plug-In . SVG Version: 6.00 Build 0)  -->
<!DOCTYPE svg PUBLIC "-//W3C//DTD SVG 1.1//EN" "http://www.w3.org/Graphics/SVG/1.1/DTD/svg11.dtd">
<svg version="1.1" id="Capa_1" xmlns="http://www.w3.org/2000/svg" xmlns:xlink="http://www.w3.org/1999/xlink" x="0px" y="0px"
	 width="442.801px" height="442.801px" viewBox="0 0 442.801 442.801" style="enable-background:new 0 0 442.801 442.801;"
	 xml:space="preserve">
<g>
	<g>
		<path d="M225.64,168.75c-34.718,0-62.959,28.242-62.959,62.955c0,22.307,11.491,42.504,30.736,54.01
			c8.213,4.915,17.442,7.637,26.824,8.438v-35.886h-12.232c-12.551,0-22.76-10.214-22.76-22.765
			c0-12.546,10.209-22.758,22.76-22.758s22.758,10.212,22.758,22.758v11.965h17.255c2.974,0,5.399,2.421,5.399,5.4
			c0,2.99-2.426,5.399-5.399,5.399H231.03v35.886c9.376-0.785,18.604-3.507,26.815-8.438c19.243-11.506,30.739-31.703,30.739-54.01
			C288.594,196.992,260.361,168.75,225.64,168.75z"/>
		<path d="M248.454,301.772c-0.264,0.09-0.527,0.164-0.791,0.248c-7.099,2.247-14.523,3.449-22.017,3.449
			c-7.48,0-14.89-1.192-21.996-3.438c-0.279-0.084-0.562-0.169-0.841-0.264c-2.199-0.728-4.369-1.529-6.497-2.457
			c-0.087-0.043-0.174-0.063-0.258-0.096v16.602h59.17v-16.602c-0.084,0.032-0.158,0.053-0.253,0.096
			C252.84,300.238,250.658,301.051,248.454,301.772z"/>
		<path d="M196.048,235.512c0,6.592,5.366,11.961,11.96,11.961h11.961v-11.961c0-6.602-5.366-11.971-11.961-11.971
			C201.414,223.541,196.048,228.92,196.048,235.512z"/>
		<rect x="196.048" y="326.616" width="59.176" height="8.732"/>
		<path d="M221.401,0C99.323,0,0,99.328,0,221.4c0,122.08,99.322,221.4,221.4,221.4c122.08,0,221.399-99.32,221.399-221.4
			C442.8,99.328,343.481,0,221.401,0z M219.969,102.049c0-2.979,2.423-5.4,5.396-5.4c2.985,0,5.4,2.42,5.4,5.4v36.893
			c0,2.982-2.415,5.4-5.4,5.4c-2.974,0-5.396-2.418-5.396-5.4V102.049z M141.128,134.584c2.112-2.115,5.526-2.115,7.636,0
			l19.533,19.527c2.112,2.117,2.112,5.524,0,7.636c-1.052,1.052-2.436,1.582-3.818,1.582s-2.766-0.53-3.818-1.582l-19.533-19.533
			C139.019,140.103,139.019,136.69,141.128,134.584z M266.035,293.299v22.527h0.981c2.979,0,5.399,2.416,5.399,5.4
			s-2.42,5.4-5.399,5.4h-0.981v14.122c0,2.984-2.415,5.399-5.399,5.399h-69.981c-2.982,0-5.4-2.415-5.4-5.399v-14.122h-0.978
			c-2.979,0-5.4-2.416-5.4-5.4s2.42-5.4,5.4-5.4h0.978v-22.527c-20.936-13.711-33.367-36.492-33.367-61.584
			c0-40.674,33.085-73.759,73.76-73.759c40.674,0,73.749,33.085,73.749,73.759C299.395,256.807,286.97,279.588,266.035,293.299z
			 M301.678,138.489l-23.262,23.258c-1.055,1.052-2.436,1.582-3.817,1.582s-2.769-0.53-3.818-1.582
			c-2.114-2.112-2.114-5.519,0-7.636l23.262-23.259c2.114-2.112,5.521-2.112,7.636,0
			C303.792,132.965,303.792,136.382,301.678,138.489z"/>
	</g>
</g>
<g>
</g>
<g>
</g>
<g>
</g>
<g>
</g>
<g>
</g>
<g>
</g>
<g>
</g>
<g>
</g>
<g>
</g>
<g>
</g>
<g>
</g>
<g>
</g>
<g>
</g>
<g>
</g>
<g>
</g>
</svg>
